<svg xmlns="http://www.w3.org/2000/svg" viewBox="0 0 840 525" width="840" height="525" role="img">
<defs>
<linearGradient id="bg" x1="0" y1="0" x2="1" y2="1">
<stop offset="0" stop-color="#06333F"/><stop offset=".55" stop-color="#0B7285"/><stop offset="1" stop-color="#128A88"/>
</linearGradient>
<linearGradient id="acc" x1="0" y1="0" x2="1" y2="0">
<stop offset="0" stop-color="#0B7285"/><stop offset="1" stop-color="#00C2B5"/>
</linearGradient>
<filter id="sh" x="-20%" y="-20%" width="140%" height="140%">
<feDropShadow dx="0" dy="14" stdDeviation="20" flood-color="#082b36" flood-opacity=".28"/>
</filter>
</defs>
<rect width="840" height="525" fill="url(#bg)"/>
<circle cx="770" cy="-40" r="210" fill="#ffffff" opacity=".055"/>
<circle cx="40" cy="555" r="150" fill="#ffffff" opacity=".05"/>
<g filter="url(#sh)">
<rect x="56" y="54" width="728" height="417" rx="18" fill="#ffffff"/>
<path d="M56 72a18 18 0 0 1 18-18h692a18 18 0 0 1 18 18v26H56z" fill="#F7FBFC"/>
<rect x="56" y="54" width="728" height="4" rx="2" fill="url(#acc)"/>
<circle cx="84" cy="84" r="5" fill="#E2777A"/><circle cx="102" cy="84" r="5" fill="#E8C468"/><circle cx="120" cy="84" r="5" fill="#6FCF97"/>
<text x="144" y="89" font-family="Inter,Arial,sans-serif" font-size="13" font-weight="700" fill="#123949" opacity=".72">CARE Hospital Workstation</text>
<rect x="84" y="118" width="672" height="30" rx="5" fill="#F7FBFC" opacity="1"/><rect x="92" y="122" width="120" height="24" rx="5" fill="#0B7285" opacity="1"/><text x="152.0" y="138" font-family="Inter,Arial,sans-serif" font-size="10" font-weight="700" fill="#fff" text-anchor="center">Reports</text><rect x="220" y="122" width="120" height="24" rx="5" fill="#ffffff" opacity="0.95"/><rect x="220" y="122" width="120" height="24" rx="5" fill="none" stroke="rgba(11,114,133,.14)"/><text x="280.0" y="138" font-family="Inter,Arial,sans-serif" font-size="10" font-weight="700" fill="#5E6E78" text-anchor="center">Camera</text><rect x="348" y="122" width="120" height="24" rx="5" fill="#ffffff" opacity="0.95"/><rect x="348" y="122" width="120" height="24" rx="5" fill="none" stroke="rgba(11,114,133,.14)"/><text x="408.0" y="138" font-family="Inter,Arial,sans-serif" font-size="10" font-weight="700" fill="#5E6E78" text-anchor="center">Dose</text><rect x="476" y="122" width="120" height="24" rx="5" fill="#ffffff" opacity="0.95"/><rect x="476" y="122" width="120" height="24" rx="5" fill="none" stroke="rgba(11,114,133,.14)"/><text x="536.0" y="138" font-family="Inter,Arial,sans-serif" font-size="10" font-weight="700" fill="#5E6E78" text-anchor="center">EMR 1</text><rect x="604" y="122" width="120" height="24" rx="5" fill="#ffffff" opacity="0.95"/><rect x="604" y="122" width="120" height="24" rx="5" fill="none" stroke="rgba(11,114,133,.14)"/><text x="664.0" y="138" font-family="Inter,Arial,sans-serif" font-size="10" font-weight="700" fill="#5E6E78" text-anchor="center">EMR 2</text><rect x="84" y="160" width="672" height="34" rx="5" fill="#00C2B5" opacity="0.12"/><rect x="84" y="160" width="672" height="34" rx="5" fill="none" stroke="#00C2B5" stroke-opacity=".35"/><circle cx="106" cy="177" r="10" fill="#0B7285"/><text x="124" y="182" font-family="Inter,Arial,sans-serif" font-size="12" font-weight="800" fill="#0B7285" text-anchor="start">PATIENT:  Shared across every tab</text><rect x="600" y="168" width="144" height="18" rx="5" fill="#ffffff" opacity="0.85"/><text x="672" y="181" font-family="Inter,Arial,sans-serif" font-size="9" font-weight="700" fill="#0B7285" text-anchor="center">Dr. PIN  •  Locked</text><rect x="84" y="208" width="420" height="172" rx="5" fill="#F7FBFC" opacity="1"/><rect x="84" y="208" width="420" height="172" rx="5" fill="none" stroke="rgba(11,114,133,.14)"/><rect x="100" y="232" width="360" height="9" rx="5" fill="#123949" opacity="0.14"/><rect x="100" y="258" width="300" height="9" rx="5" fill="#123949" opacity="0.14"/><rect x="100" y="284" width="340" height="9" rx="5" fill="#123949" opacity="0.14"/><rect x="100" y="310" width="270" height="9" rx="5" fill="#123949" opacity="0.14"/><rect x="100" y="336" width="320" height="9" rx="5" fill="#123949" opacity="0.14"/><rect x="520" y="208" width="236" height="36" rx="5" fill="#ffffff" opacity="1"/><rect x="520" y="208" width="236" height="36" rx="5" fill="none" stroke="rgba(11,114,133,.14)"/><rect x="532" y="217" width="18" height="18" rx="5" fill="#0B7285" opacity=".85"/><text x="560" y="231" font-family="Inter,Arial,sans-serif" font-size="11" font-weight="700" fill="#123949" text-anchor="start">OPD Queue</text><rect x="520" y="252" width="236" height="36" rx="5" fill="#ffffff" opacity="1"/><rect x="520" y="252" width="236" height="36" rx="5" fill="none" stroke="rgba(11,114,133,.14)"/><rect x="532" y="261" width="18" height="18" rx="5" fill="#00C2B5" opacity=".85"/><text x="560" y="275" font-family="Inter,Arial,sans-serif" font-size="11" font-weight="700" fill="#123949" text-anchor="start">Templates</text><rect x="520" y="296" width="236" height="36" rx="5" fill="#ffffff" opacity="1"/><rect x="520" y="296" width="236" height="36" rx="5" fill="none" stroke="rgba(11,114,133,.14)"/><rect x="532" y="305" width="18" height="18" rx="5" fill="#0B7285" opacity=".85"/><text x="560" y="319" font-family="Inter,Arial,sans-serif" font-size="11" font-weight="700" fill="#123949" text-anchor="start">Backup</text><rect x="520" y="340" width="236" height="36" rx="5" fill="#ffffff" opacity="1"/><rect x="520" y="340" width="236" height="36" rx="5" fill="none" stroke="rgba(11,114,133,.14)"/><rect x="532" y="349" width="18" height="18" rx="5" fill="#5E6E78" opacity=".85"/><text x="560" y="363" font-family="Inter,Arial,sans-serif" font-size="11" font-weight="700" fill="#123949" text-anchor="start">Add module</text><rect x="84" y="396" width="672" height="24" rx="5" fill="#0B7285" opacity="0.06"/><text x="100" y="412" font-family="Inter,Arial,sans-serif" font-size="10" font-weight="700" fill="#0B7285" text-anchor="start">Server PC  +  client machines   •   licence per PC</text>
</g>
</svg>